 http://www.imdb.com/title/tt0112384/

Source: Apollo.13.1995.BluRay.720p.DTS.2Audio.x264-CHD Thanks!

Subs: Arabic, Bulgarian, Croatian, Danish, Dutch, English, French, Greek, Indonesian, Norwegian, Romanian, Spanish, Swedish and Vietnamese.

Sample and Screens included.

General
Complete name                            : Apollo 13-720p MP4 AAC x264 BRRip 1995-CC.mp4
Format                                   : MPEG-4
Format profile                           : Base Media
Codec ID                                 : isom
File size                                : 3.36 GiB
Duration                                 : 2h 19mn
Overall bit rate mode                    : Variable
Overall bit rate                         : 3 445 Kbps
Encoded date                             : UTC 2012-11-01 15:48:40

Video
ID                                       : 1
Format                                   : AVC
Format/Info                              : Advanced Video Codec
Format profile                           : High@L4.1
Format settings, CABAC                   : Yes
Format settings, ReFrames                : 5 frames
Codec ID                                 : avc1
Codec ID/Info                            : Advanced Video Coding
Duration                                 : 2h 19mn
Bit rate                                 : 3 103 Kbps
Maximum bit rate                         : 17.8 Mbps
Width                                    : 1 280 pixels
Height                                   : 544 pixels
Display aspect ratio                     : 2.35:1
Frame rate mode                          : Variable
Frame rate                               : 23.976 fps
Minimum frame rate                       : 19.048 fps
Maximum frame rate                       : 24.390 fps
Color space                              : YUV
Chroma subsampling                       : 4:2:0
Bit depth                                : 8 bits
Scan type                                : Progressive
Bits/(Pixel*Frame)                       : 0.186
Stream size                              : 2.98 GiB (89%)
Writing library                          : x264 core 112

Audio
ID                                       : 2
Format                                   : AAC
Format/Info                              : Advanced Audio Codec
Format profile                           : LC
Codec ID                                 : 40
Duration                                 : 2h 19mn
Bit rate mode                            : Variable
Bit rate                                 : 384 Kbps
Maximum bit rate                         : 634 Kbps
Channel(s)                               : 6 channels
Channel positions                        : Front: L C R, Side: L R, LFE
Sampling rate                            : 48.0 KHz
Compression mode                         : Lossy
Delay relative to video                  : 83ms
Stream size                              : 383 MiB (11%)
Language                                 : English

Enjoy...

Requested by aartje80

Coming soon: Evita, Heat, Jay and Silent Bob Strike Back, Donnie Brasco, The Gold Rush...